<?xml version="1.0" encoding="UTF-8"?>
<svg xmlns="http://www.w3.org/2000/svg" xmlns:xlink="http://www.w3.org/1999/xlink" width="16" height="16" viewBox="0 0 16 16" version="1.1">
<g id="surface1">
<path style=" stroke:none;fill-rule:nonzero;fill:rgb(100%,100%,100%);fill-opacity:1;" d="M 14.761719 5.714844 L 14.953125 5.714844 C 15.53125 5.714844 16 6.183594 16 6.761719 L 16 10.953125 C 16 11.53125 15.53125 12 14.953125 12 L 14.761719 12 C 14.183594 12 13.714844 11.53125 13.714844 10.953125 L 13.714844 6.761719 C 13.714844 6.183594 14.183594 5.714844 14.761719 5.714844 Z M 14.761719 5.714844 "/>
<path style=" stroke:none;fill-rule:nonzero;fill:rgb(100%,100%,100%);fill-opacity:1;" d="M 1.046875 5.714844 L 1.238281 5.714844 C 1.816406 5.714844 2.285156 6.183594 2.285156 6.761719 L 2.285156 10.953125 C 2.285156 11.53125 1.816406 12 1.238281 12 L 1.046875 12 C 0.46875 12 0 11.53125 0 10.953125 L 0 6.761719 C 0 6.183594 0.46875 5.714844 1.046875 5.714844 Z M 1.046875 5.714844 "/>
<path style=" stroke:none;fill-rule:nonzero;fill:rgb(100%,100%,100%);fill-opacity:1;" d="M 3.429688 5.714844 L 3.429688 11.429688 C 3.429688 12.0625 3.9375 12.570312 4.570312 12.570312 L 4.570312 14.855469 C 4.570312 15.492188 5.082031 16 5.714844 16 C 6.347656 16 6.855469 15.492188 6.855469 14.855469 L 6.855469 12.570312 L 9.144531 12.570312 L 9.144531 14.855469 C 9.144531 15.492188 9.652344 16 10.285156 16 C 10.917969 16 11.429688 15.492188 11.429688 14.855469 L 11.429688 12.570312 C 12.0625 12.570312 12.570312 12.0625 12.570312 11.429688 L 12.570312 5.714844 Z M 3.429688 5.714844 "/>
<path style=" stroke:none;fill-rule:nonzero;fill:rgb(100%,100%,100%);fill-opacity:1;" d="M 11.585938 -0.00390625 C 11.445312 -0.0078125 11.3125 0.0585938 11.230469 0.171875 L 10.457031 1.199219 C 9.722656 0.789062 8.871094 0.570312 8 0.570312 C 7.128906 0.574219 6.277344 0.792969 5.542969 1.203125 L 4.769531 0.171875 C 4.695312 0.0664062 4.574219 0 4.441406 -0.00390625 C 4.277344 -0.0117188 4.121094 0.078125 4.042969 0.226562 C 3.96875 0.375 3.984375 0.554688 4.085938 0.6875 L 4.839844 1.6875 C 3.941406 2.441406 3.429688 3.484375 3.429688 4.570312 L 12.570312 4.570312 C 12.570312 3.480469 12.0625 2.441406 11.164062 1.6875 L 11.914062 0.6875 C 12.011719 0.558594 12.03125 0.386719 11.960938 0.238281 C 11.894531 0.09375 11.75 0 11.585938 -0.00390625 Z M 6.285156 2.285156 C 6.601562 2.285156 6.855469 2.542969 6.855469 2.855469 C 6.855469 3.171875 6.601562 3.429688 6.285156 3.429688 C 5.96875 3.429688 5.714844 3.171875 5.714844 2.855469 C 5.714844 2.542969 5.96875 2.285156 6.285156 2.285156 Z M 9.714844 2.285156 C 10.03125 2.285156 10.285156 2.542969 10.285156 2.855469 C 10.285156 3.171875 10.03125 3.429688 9.714844 3.429688 C 9.398438 3.429688 9.144531 3.171875 9.144531 2.855469 C 9.144531 2.542969 9.398438 2.285156 9.714844 2.285156 Z M 9.714844 2.285156 "/>
</g>
</svg>
