<?xml version="1.0" encoding="UTF-8"?>
<svg xmlns="http://www.w3.org/2000/svg" xmlns:xlink="http://www.w3.org/1999/xlink" width="16" height="16" viewBox="0 0 16 16" version="1.1">
<g id="surface1">
<path style=" stroke:none;fill-rule:nonzero;fill:rgb(70.19608%,80.392158%,29.411766%);fill-opacity:1;" d="M 12.070312 4.0625 L 3.929688 4.0625 C 4.039062 2.898438 5.179688 0.808594 8.027344 0.808594 C 10.738281 0.808594 11.960938 2.898438 12.070312 4.0625 "/>
<path style=" stroke:none;fill-rule:nonzero;fill:rgb(70.19608%,80.392158%,29.411766%);fill-opacity:1;" d="M 1.761719 11.117188 C 1.164062 11.117188 0.675781 10.628906 0.675781 10.03125 L 0.675781 6.234375 C 0.675781 5.636719 1.164062 5.148438 1.761719 5.148438 C 2.355469 5.148438 2.84375 5.636719 2.84375 6.234375 L 2.84375 10.03125 C 2.84375 10.628906 2.355469 11.117188 1.761719 11.117188 "/>
<path style=" stroke:none;fill-rule:nonzero;fill:rgb(70.19608%,80.392158%,29.411766%);fill-opacity:1;" d="M 14.238281 11.117188 C 13.644531 11.117188 13.15625 10.628906 13.15625 10.03125 L 13.15625 6.234375 C 13.15625 5.636719 13.644531 5.148438 14.238281 5.148438 C 14.835938 5.148438 15.324219 5.636719 15.324219 6.234375 L 15.324219 10.03125 C 15.324219 10.628906 14.835938 11.117188 14.238281 11.117188 "/>
<path style=" stroke:none;fill-rule:nonzero;fill:rgb(70.19608%,80.392158%,29.411766%);fill-opacity:1;" d="M 10.984375 12.472656 L 10.984375 15.1875 C 10.984375 15.648438 10.632812 16 10.171875 16 C 9.710938 16 9.355469 15.648438 9.355469 15.1875 L 9.355469 12.472656 L 6.644531 12.472656 L 6.644531 15.1875 C 6.644531 15.648438 6.265625 16 5.828125 16 C 5.394531 16 5.015625 15.648438 5.015625 15.1875 L 5.015625 12.472656 L 3.929688 12.472656 L 3.929688 5.148438 L 12.070312 5.148438 L 12.070312 12.472656 Z M 10.984375 12.472656 "/>
<path style=" stroke:none;fill-rule:nonzero;fill:rgb(100%,100%,100%);fill-opacity:1;" d="M 7.1875 2.707031 C 7.1875 2.40625 6.941406 2.164062 6.644531 2.164062 C 6.34375 2.164062 6.101562 2.40625 6.101562 2.707031 C 6.101562 3.003906 6.34375 3.25 6.644531 3.25 C 6.941406 3.25 7.1875 3.003906 7.1875 2.707031 "/>
<path style=" stroke:none;fill-rule:nonzero;fill:rgb(100%,100%,100%);fill-opacity:1;" d="M 9.898438 2.707031 C 9.898438 2.40625 9.65625 2.164062 9.355469 2.164062 C 9.058594 2.164062 8.8125 2.40625 8.8125 2.707031 C 8.8125 3.003906 9.058594 3.25 9.355469 3.25 C 9.65625 3.25 9.898438 3.003906 9.898438 2.707031 "/>
<path style=" stroke:none;fill-rule:nonzero;fill:rgb(70.19608%,80.392158%,29.411766%);fill-opacity:1;" d="M 5.800781 1.621094 C 5.695312 1.621094 5.613281 1.566406 5.558594 1.457031 L 5.042969 0.375 C 4.988281 0.238281 5.042969 0.0742188 5.179688 0.0195312 C 5.3125 -0.0351562 5.476562 0.0195312 5.53125 0.15625 L 6.046875 1.242188 C 6.101562 1.378906 6.046875 1.539062 5.910156 1.59375 C 5.882812 1.59375 5.855469 1.621094 5.800781 1.621094 Z M 5.800781 1.621094 "/>
<path style=" stroke:none;fill-rule:nonzero;fill:rgb(70.19608%,80.392158%,29.411766%);fill-opacity:1;" d="M 10.171875 1.621094 C 10.144531 1.621094 10.089844 1.621094 10.0625 1.59375 C 9.925781 1.539062 9.871094 1.378906 9.925781 1.242188 L 10.441406 0.15625 C 10.496094 0.0195312 10.660156 -0.0351562 10.792969 0.0195312 C 10.929688 0.0742188 10.984375 0.238281 10.929688 0.375 L 10.414062 1.457031 C 10.386719 1.566406 10.277344 1.621094 10.171875 1.621094 Z M 10.171875 1.621094 "/>
</g>
</svg>
